'
' Copyright (C) 2019 - 2020 Rabobank Nederland
'
' Licensed under the Apache License, Version 2.0 (the "License");
' you may not use this file except in compliance with the License.
' You may obtain a copy of the License at
'
'         http://www.apache.org/licenses/LICENSE-2.0
'
' Unless required by applicable law or agreed to in writing, software
' distributed under the License is distributed on an "AS IS" BASIS,
' WITHOUT WARRANTIES OR CONDITIONS OF ANY KIND, either express or implied.
' See the License for the specific language governing permissions and
' limitations under the License.
'

@startuml

caption Link and related Classes

skinparam shadowing<<with_shadow>> true
skinparam backgroundColor #SeaShell

class Link {
    runId
}

class Artifact {
    uri
    hash
}

class LayoutSegment {
}

class LayoutSegment {
}


LayoutSegment "1" -right- "1" Step
Link "1" -right-> "1" LayoutSegment
Link "1" -right-> "1" Step
Link "1" --> "0..*" Artifact: materials
Link "1" --> "0..*" Artifact: products

@enduml
