'
' Copyright (C) 2019 - 2020 Rabobank Nederland
'
' Licensed under the Apache License, Version 2.0 (the "License");
' you may not use this file except in compliance with the License.
' You may obtain a copy of the License at
'
'         http://www.apache.org/licenses/LICENSE-2.0
'
' Unless required by applicable law or agreed to in writing, software
' distributed under the License is distributed on an "AS IS" BASIS,
' WITHOUT WARRANTIES OR CONDITIONS OF ANY KIND, either express or implied.
' See the License for the specific language governing permissions and
' limitations under the License.
'

@startuml

caption Layout and related Classes

skinparam shadowing<<with_shadow>> true
skinparam backgroundColor #SeaShell

class Layout {
  
}

class Key {
}

class Account {
}

class PublicKey {
}

class Layout {
    List authorizedKeyIds
}

class LayoutSegment {
}

class Step {
    int requiredNumberOfLinks
    List authorizedKeyIds
}


enum RuleType {
    ALLOW
    CREATE
    CREATE_OR_MODIFY
    DELETE
    DISALLOW
    MATCH
    MODIFY
    REQUIRE
}

class Rule {
    type
}

class MatchRule {
    String sourcePathPrefix
    String destinationPathPrefix
    String destinationSegmentName
    String destinationStepName
}

enum ArtifactType {
    MATERIALS
    PRODUCTS
}

Rule <|-- MatchRule

Rule -left-> RuleType: has a
MatchRule "1" -- "1" ArtifactType: destinationType

Layout "1" -right-> "1..*" LayoutSegment
Layout "1" -left-> "1..*" Key
Layout "1" --> "1..*" MatchRule: expectedEndProducts
Key "1" -left- "1" PublicKey
Key "1" -- "1" Account
LayoutSegment "1" -right-> "1..*" Step
Step "1" --> "0..*" Rule: expectedMaterials
Step "1" --> "0..*" Rule: expectedProducts

@enduml
